<?xml version="1.0" standalone="no"?>
<!DOCTYPE svg PUBLIC "-//W3C//DTD SVG 20010904//EN"
 "http://www.w3.org/TR/2001/REC-SVG-20010904/DTD/svg10.dtd">
<svg version="1.0" xmlns="http://www.w3.org/2000/svg"
 width="2160.000000pt" height="1620.000000pt" viewBox="0 0 2160.000000 1620.000000"
 preserveAspectRatio="xMidYMid meet">

<g transform="translate(0.000000,1620.000000) scale(0.100000,-0.100000)"
fill="#000000" stroke="none">
<path d="M0 8100 l0 -8100 10800 0 10800 0 0 8100 0 8100 -4582 -2 c-2521 -1
-4497 -5 -4393 -9 105 -4 232 -12 284 -18 80 -9 97 -14 120 -37 59 -60 152
-79 231 -48 51 21 169 16 380 -14 80 -12 181 -26 225 -32 306 -41 480 -70 635
-105 58 -13 173 -37 255 -54 83 -17 202 -47 265 -67 430 -136 492 -161 815
-332 514 -272 954 -589 1144 -826 l64 -79 -2 -69 c-1 -38 3 -85 9 -104 6 -18
47 -81 90 -139 48 -65 104 -157 146 -242 38 -76 85 -161 105 -189 20 -28 57
-91 82 -140 41 -83 60 -105 142 -174 9 -8 41 -46 69 -84 28 -37 67 -77 86 -87
64 -34 224 -106 285 -129 75 -27 115 -57 164 -123 70 -94 175 -316 206 -436 9
-36 29 -90 45 -121 16 -32 52 -140 81 -241 46 -162 57 -193 101 -258 65 -95
138 -235 138 -264 0 -12 11 -44 23 -72 13 -27 27 -71 30 -96 7 -55 46 -145 81
-191 13 -18 37 -58 52 -88 15 -30 38 -68 51 -84 29 -34 73 -119 73 -140 0 -31
74 -154 121 -201 55 -54 76 -89 168 -270 34 -66 75 -144 92 -174 16 -30 36
-78 45 -106 8 -29 30 -70 48 -91 49 -58 109 -219 195 -529 16 -55 43 -140 60
-190 18 -49 41 -139 52 -200 11 -60 29 -139 40 -175 11 -35 26 -103 34 -150 8
-47 26 -134 39 -195 23 -105 34 -158 77 -380 11 -55 28 -134 39 -175 10 -41
24 -113 30 -160 7 -47 24 -157 38 -245 l26 -160 -1 -800 c0 -995 -11 -1143
-108 -1480 -118 -410 -133 -498 -144 -860 -8 -246 -12 -270 -70 -515 -16 -69
-34 -168 -41 -220 -20 -172 -77 -390 -123 -469 -17 -30 -70 -100 -119 -155
-48 -56 -117 -135 -153 -176 -36 -41 -87 -100 -113 -130 -26 -30 -79 -102
-116 -160 -38 -58 -84 -127 -102 -155 -18 -27 -97 -111 -175 -185 -78 -74
-198 -197 -268 -274 -195 -214 -371 -343 -646 -475 -187 -90 -326 -160 -440
-224 -55 -30 -170 -88 -255 -127 -85 -39 -180 -83 -210 -97 -30 -14 -160 -61
-289 -105 -129 -44 -248 -86 -264 -94 -28 -15 -245 -92 -397 -141 -98 -32
-240 -86 -369 -141 -58 -24 -168 -66 -245 -92 -78 -26 -172 -61 -211 -78 -38
-17 -104 -40 -145 -52 -41 -13 -104 -36 -139 -52 -36 -17 -99 -36 -140 -44
-42 -8 -134 -27 -206 -41 -100 -20 -179 -28 -345 -35 -118 -4 -307 -12 -420
-17 -113 -5 -407 -10 -655 -10 -493 -1 -502 0 -670 64 -38 14 -95 34 -125 44
-78 25 -191 84 -258 134 -31 24 -100 68 -152 97 -148 84 -209 149 -325 343
-79 133 -106 211 -112 322 -11 193 78 382 230 486 l64 44 18 100 c17 102 19
115 14 150 -1 11 17 66 41 123 33 76 49 104 65 107 11 2 52 9 90 16 44 7 90
24 125 44 81 48 148 75 185 75 17 0 65 9 106 19 41 10 108 24 149 31 41 7 94
16 117 20 26 4 75 28 126 62 127 85 171 103 287 122 59 10 133 30 170 45 139
61 196 81 230 81 19 1 53 8 75 16 22 9 78 29 125 45 47 17 117 47 155 68 39
21 84 41 100 45 40 10 117 60 133 87 8 11 25 55 39 96 22 66 24 86 19 157 -3
44 -5 92 -4 106 1 14 2 73 2 132 1 103 0 108 -29 149 -16 23 -42 51 -56 62
-38 28 -157 41 -364 41 -174 0 -235 -6 -365 -40 -140 -35 -185 -44 -230 -44
-26 0 -90 -13 -141 -30 -87 -28 -126 -37 -329 -76 -134 -25 -217 -34 -324 -34
-97 0 -116 -3 -222 -40 -64 -21 -153 -46 -198 -55 -54 -11 -100 -28 -138 -51
-31 -19 -61 -34 -67 -34 -6 0 -26 -14 -45 -31 -34 -29 -43 -31 -228 -55 -106
-13 -224 -24 -263 -24 -38 0 -153 -9 -255 -20 -102 -11 -240 -20 -308 -20
l-123 0 -29 34 c-17 18 -42 38 -57 44 -16 6 -109 16 -208 22 -99 7 -220 20
-270 30 -49 10 -133 24 -185 29 -148 17 -271 50 -440 116 -52 21 -126 48 -165
62 -38 13 -98 35 -132 48 -34 14 -71 25 -82 25 -12 0 -65 23 -118 51 -177 92
-263 118 -412 124 -76 4 -102 1 -135 -14 -51 -23 -84 -58 -101 -108 -9 -25
-27 -48 -56 -69 -24 -17 -55 -50 -69 -75 -23 -40 -25 -55 -25 -159 l0 -115 44
-88 c33 -65 66 -111 130 -178 47 -51 93 -102 101 -115 27 -40 146 -139 185
-153 21 -7 56 -26 79 -42 29 -21 65 -33 124 -43 45 -8 97 -23 115 -34 17 -11
57 -27 87 -36 30 -9 73 -27 95 -41 22 -13 65 -38 97 -54 31 -17 72 -41 92 -55
20 -13 51 -28 68 -31 39 -9 111 -43 163 -77 53 -35 238 -96 322 -107 63 -9
143 -26 333 -71 41 -10 113 -32 160 -50 84 -31 86 -31 244 -28 l159 4 -6 -146
c-7 -171 -32 -269 -97 -369 -22 -34 -53 -91 -69 -126 -16 -35 -44 -85 -62
-111 -17 -26 -50 -79 -73 -118 -23 -39 -58 -96 -79 -126 -21 -30 -59 -87 -85
-126 -26 -40 -94 -121 -151 -180 l-103 -109 -77 -6 c-42 -3 -150 -11 -241 -18
-91 -7 -212 -21 -270 -33 -199 -39 -1122 -44 -2680 -15 -152 3 -182 6 -228 25
-29 12 -74 22 -100 22 -26 0 -56 6 -67 14 -46 31 -401 151 -495 167 -36 6
-105 22 -155 34 -49 13 -124 29 -165 35 -41 7 -142 30 -225 52 -82 21 -186 46
-230 54 -44 9 -102 25 -130 36 -27 11 -80 30 -116 43 -36 12 -74 28 -85 34
-10 6 -45 22 -76 35 -32 14 -101 55 -154 93 -52 37 -111 79 -131 92 -41 29
-133 40 -184 22 -27 -9 -42 -7 -93 11 -34 12 -83 35 -110 51 -73 42 -246 124
-281 131 -34 8 -274 114 -410 182 -49 24 -129 55 -178 69 -48 14 -136 49 -195
78 -59 30 -123 60 -142 67 -66 26 -315 163 -395 219 -90 62 -236 199 -300 281
-23 30 -88 123 -144 205 -56 83 -133 195 -171 250 -78 114 -256 480 -296 608
-14 45 -36 112 -49 149 -14 37 -36 125 -51 195 -14 70 -28 131 -30 134 -1 3
-12 78 -24 167 -11 89 -25 173 -30 186 -4 13 -16 66 -26 117 -9 52 -27 124
-40 162 -13 37 -28 113 -34 170 -14 127 -37 297 -56 401 -8 43 -14 136 -14
207 0 103 -6 160 -30 279 -16 83 -38 180 -49 214 -31 101 -42 204 -51 466 -5
135 -15 340 -22 455 -8 136 -13 440 -13 865 0 644 1 656 23 747 12 51 42 137
66 190 24 54 65 157 90 228 26 72 64 168 85 215 48 104 113 298 136 405 9 44
28 115 41 158 13 43 42 158 64 255 45 199 72 302 136 512 63 205 64 207 201
488 67 139 123 255 123 256 0 6 235 419 263 463 15 24 96 111 180 195 180 181
209 219 409 555 38 65 90 124 241 276 202 205 285 280 432 392 50 38 176 137
280 220 217 173 314 244 505 369 160 104 474 290 655 389 150 81 211 122 278
186 65 63 183 139 226 147 47 8 89 33 321 188 212 142 351 229 616 384 94 56
245 146 334 202 551 344 1026 550 1271 550 21 0 69 17 120 41 120 58 267 116
346 135 38 9 86 27 108 40 24 14 74 28 120 35 44 7 108 23 143 35 59 23 75 24
300 24 269 0 273 -1 386 -86 33 -26 71 -51 84 -57 21 -10 22 -15 22 -137 0
-70 -3 -161 -6 -202 l-7 -75 -87 -5 c-72 -4 -98 -11 -146 -36 -32 -17 -77 -36
-99 -42 -22 -7 -56 -21 -75 -32 -70 -40 -208 -86 -324 -108 -27 -5 -71 -25
-100 -45 -48 -33 -56 -35 -129 -35 -86 0 -215 -28 -281 -62 -23 -11 -85 -65
-139 -119 -54 -55 -104 -99 -111 -99 -68 0 -294 -260 -347 -399 -27 -72 -25
-164 4 -221 23 -47 102 -111 186 -151 70 -34 200 -52 333 -47 109 5 120 7 175
38 103 59 238 126 268 134 17 4 65 27 107 51 42 24 94 48 115 55 21 7 55 23
77 37 21 14 70 34 109 44 38 11 79 25 89 30 11 6 41 17 66 24 26 8 79 25 117
39 118 42 216 63 320 70 108 8 133 12 271 50 103 28 227 46 329 46 38 1 99 8
135 16 109 26 187 33 375 33 114 0 209 -5 260 -14 44 -8 125 -15 180 -15 67
-1 113 -6 140 -17 29 -12 92 -18 235 -23 150 -5 206 -10 245 -24 27 -10 88
-22 135 -26 58 -6 110 -18 165 -40 110 -45 135 -49 335 -61 441 -26 447 -26
521 50 40 41 48 58 63 121 19 86 23 411 5 475 -15 53 -73 110 -129 125 -25 7
-81 16 -125 21 -149 16 -178 22 -212 45 -19 12 -60 28 -91 34 -31 6 -84 15
-117 22 -33 6 -112 23 -175 39 -105 25 -137 28 -375 34 -190 5 -270 10 -299
21 -28 11 -82 14 -217 14 -198 -2 -203 0 -250 69 -35 50 -39 152 -9 212 46 90
257 266 490 407 l35 22 -5807 0 -5808 0 0 -8100z m21534 8034 c31 -30 9 -84
-34 -84 -24 0 -50 26 -50 50 0 24 26 50 50 50 10 0 26 -7 34 -16z m-12061
-15845 c-5 -5 -37 -12 -69 -14 l-59 -4 50 13 c64 18 93 20 78 5z"/>
<path d="M13375 11476 c-55 -14 -134 -32 -175 -41 -51 -10 -100 -30 -150 -60
-86 -51 -117 -66 -180 -90 -131 -49 -219 -115 -287 -218 -46 -68 -59 -101
-127 -314 l-26 -82 1 -363 c0 -200 5 -390 10 -423 5 -33 13 -112 19 -175 5
-63 21 -176 34 -250 13 -74 27 -158 30 -187 8 -60 36 -140 99 -273 24 -52 57
-126 72 -165 25 -64 85 -167 160 -276 60 -87 176 -192 268 -242 49 -27 108
-61 130 -76 51 -34 95 -57 212 -111 206 -96 236 -100 700 -100 204 0 397 4
430 10 33 5 130 14 215 20 85 6 191 20 235 30 44 11 116 27 160 36 107 22 126
29 225 87 166 99 287 261 311 419 7 42 9 243 6 535 -3 446 -5 476 -30 645 -29
192 -55 286 -123 445 -24 57 -44 106 -44 109 0 23 -123 251 -164 304 -28 36
-69 92 -90 125 -83 127 -277 328 -392 407 -181 123 -289 175 -514 246 l-145
45 -385 3 c-378 4 -387 3 -485 -20z"/>
<path d="M8170 11319 c-93 -12 -216 -52 -285 -95 -33 -20 -78 -45 -100 -56
-22 -12 -42 -24 -45 -27 -3 -4 -27 -24 -55 -45 -90 -68 -287 -259 -340 -331
-29 -38 -71 -106 -93 -150 -90 -180 -162 -342 -162 -365 0 -14 -7 -47 -16 -75
-13 -39 -18 -121 -25 -360 -4 -170 -15 -372 -24 -448 -20 -180 -20 -565 -1
-658 36 -169 195 -398 324 -469 15 -8 50 -32 77 -51 67 -49 145 -85 241 -110
98 -27 329 -37 431 -19 67 11 243 86 257 109 5 7 51 11 135 11 166 0 307 27
403 76 61 32 166 123 227 198 71 87 103 141 238 406 98 193 151 333 202 535
11 44 29 112 41 150 62 212 96 536 87 845 -7 230 -18 284 -86 438 -60 136
-100 190 -206 281 -233 198 -321 222 -830 220 -181 -1 -359 -5 -395 -10z"/>
</g>
</svg>
